<?xml version="1.0" encoding="UTF-8"?>
<svg id="Layer_2" data-name="Layer 2" xmlns="http://www.w3.org/2000/svg" viewBox="0 0 700 208.71">
  <defs>
    <style>
      .cls-1 {
        stroke: #000;
        stroke-width: .82px;
      }

      .cls-1, .cls-2, .cls-3 {
        fill: #8491a5;
      }

      .cls-1, .cls-4, .cls-5 {
        stroke-miterlimit: 10;
      }

      .cls-6 {
        opacity: .29;
      }

      .cls-7, .cls-8 {
        fill: #444a55;
      }

      .cls-9 {
        opacity: .45;
      }

      .cls-9, .cls-10, .cls-11, .cls-12, .cls-13, .cls-14 {
        fill: #fff;
      }

      .cls-10 {
        opacity: .63;
      }

      .cls-15, .cls-16 {
        fill: #4d4d4d;
      }

      .cls-11 {
        opacity: .5;
      }

      .cls-12 {
        opacity: .49;
      }

      .cls-17 {
        opacity: .74;
      }

      .cls-17, .cls-18 {
        fill: #edaf22;
      }

      .cls-19 {
        fill: #aac3cf;
      }

      .cls-8, .cls-20 {
        opacity: .64;
      }

      .cls-2 {
        opacity: .81;
      }

      .cls-21 {
        opacity: .21;
      }

      .cls-22 {
        fill: #666;
      }

      .cls-23 {
        fill: #cc1f29;
      }

      .cls-4 {
        stroke-width: 1.03px;
      }

      .cls-4, .cls-5 {
        fill: none;
        stroke: #4d4d4d;
      }

      .cls-24 {
        fill: #30303b;
      }

      .cls-5 {
        stroke-width: 2.05px;
      }

      .cls-25 {
        fill: #333;
      }

      .cls-26 {
        fill: #1a1a1a;
      }

      .cls-27 {
        fill: #fac04f;
      }

      .cls-16, .cls-28 {
        opacity: .36;
      }

      .cls-13 {
        opacity: .33;
      }

      .cls-28 {
        fill: red;
      }

      .cls-29 {
        opacity: .1;
      }

      .cls-30 {
        opacity: .04;
      }

      .cls-31 {
        fill: gray;
      }

      .cls-14 {
        opacity: .24;
      }

      .cls-32 {
        opacity: .08;
      }

      .cls-33 {
        fill: #e6e6e6;
      }
    </style>
  </defs>
  <g id="Layer_1-2" data-name="Layer 1">
    <g>
      <path class="cls-22" d="M69.58,77.38l-2.81,7.05-25.18,6.57c14.67-7.82,7.24-12.51.43-14.63l19.92,1.08s3.6.14,7.64-.07Z"/>
      <path class="cls-19" d="M665.83,112.78l-5.23-4.19-16.13-29.23,1.89-1.28s2.47.98,5.67,3.26c.44.31.9.66,1.38,1.03,1.8,1.43,3.75,3.24,5.56,5.5.82,1.02,1.61,2.13,2.34,3.34,3.22,5.26,5.42,12.31,4.52,21.57Z"/>
      <path class="cls-14" d="M664.53,112.79l-5.23-4.19-16.13-29.23,1.89-1.28s2.47.98,5.67,3.26c.44.31.9.66,1.38,1.03,1.8,1.43,3.75,3.24,5.56,5.5.82,1.02,1.61,2.13,2.34,3.34,3.22,5.26,5.42,12.31,4.52,21.57Z"/>
      <path class="cls-26" d="M59.82,146.66l-27.01-5.05c-.3-.06-.6-.1-.91-.14-4.07-.45-32.35-3.18-16.65,11.06,10.39,9.41,24.28,13.45,43.31,18.73,5.57,1.54,36.72,9.55,59.63,7.75.35-.03.7-.04,1.05-.04l89.52.96,281.65-.36s13.92.46,32.86,15.28c16.73,13.1,59.26-4.25,68.94-8.47,1.33-.58,2.75-.92,4.21-1.02,9.99-.69,50.29-4.26,52.73-17.45,2.36-12.77-41.54-61.82-54.92-76.41-2.39-2.61-5.89-4.06-9.53-3.97l-79.09,2.1c-5.02.13-9.45,3.18-11.14,7.68l-9.63,25.54-8.19,22.38c-1.75,4.79-6.58,7.94-11.91,7.78l-217.36-6.53c-3.82-.11-7.37-1.93-9.57-4.89l-32.24-43.31c-2.24-3-5.84-4.82-9.71-4.9l-81.07-1.6c-4.93-.1-9.44,2.64-11.43,6.94l-19.52,42.33c-2.07,4.48-6.86,7.24-11.99,6.91l-3.44-.22c-.25-.02-.5-.04-.75-.07l-7.07-.88c-.26-.03-.52-.07-.78-.12Z"/>
      <g id="teker">
        <g>
          <ellipse class="cls-24" cx="552.37" cy="156.46" rx="52.87" ry="50.25"/>
          <ellipse class="cls-1" cx="552.37" cy="156.46" rx="38.06" ry="36.18"/>
          <ellipse class="cls-7" cx="552.37" cy="156.46" rx="31.72" ry="30.15"/>
          <path class="cls-3" d="M560.82,156.81l17.59-1.9-4.05-11.79-15.37,8.33c-.94-1.12-2.2-1.99-3.64-2.51l3.56-16.48h-13.05l3.56,16.48c-1.46.52-2.73,1.41-3.67,2.55l-15.43-8.23-3.96,11.81,17.6,1.79c.08,1.5.58,2.89,1.4,4.06l-13.01,11.39,10.59,7.25,7.25-15.35c.71.18,1.45.29,2.22.29s1.55-.11,2.27-.3l7.36,15.3,10.53-7.32-13.1-11.31c.81-1.18,1.31-2.57,1.37-4.07Z"/>
          <g class="cls-20">
            <polygon class="cls-7" points="536.24 173.7 542.28 177.89 548.85 165.62 542.3 176.81 536.24 173.7"/>
          </g>
          <path class="cls-8" d="M561.24,175.22c.07.21,1.27,2.67,1.27,2.67l8.21-5.44-7.54,4.11-1.94-1.35Z"/>
          <g class="cls-20">
            <path class="cls-7" d="M564.37,155.5c.9,0,12.61-1.42,12.61-1.42l-1.34-4.54.52,3.97-11.79,1.99Z"/>
          </g>
          <path class="cls-8" d="M529.52,150.53c-.07.28-1.64,3.55-1.64,3.55l15.52,1.94-13.96-2.43.07-3.05Z"/>
          <g class="cls-20">
            <path class="cls-7" d="M551.01,148.26s2.39-.35,3.73,0l3.06-13.9-3.4,13.19s-1.8.03-3.4.71Z"/>
          </g>
          <path class="cls-8" d="M552.42,162.28c-2.28,0-4.32-1.02-5.63-2.6,1.16,2,3.4,3.36,5.98,3.36,3.76,0,6.82-2.9,6.82-6.48,0-.18-.01-.36-.03-.54-.29,3.51-3.37,6.27-7.14,6.27Z"/>
          <path class="cls-13" d="M552.87,150.58c2.28-.14,4.15.33,5.51,1.88-1.22-1.97-3.5-3.27-6.07-3.2-3.76.1-6.73,3.08-6.62,6.66,0,.18.02.36.05.54.19-3.51,3.29-5.65,7.14-5.88Z"/>
          <polygon class="cls-13" points="530.45 147.85 531.15 144.73 534.73 146.58 531.55 145.68 530.45 147.85"/>
          <polygon class="cls-13" points="547.07 133.43 548.31 139.53 548.31 134.71 553.64 133.43 547.07 133.43"/>
          <path class="cls-13" d="M567.62,147.85c.65-.19,6.22-3.12,6.22-3.12l1.19,3.53-1.59-2.3-5.82,1.89Z"/>
          <path class="cls-13" d="M556.92,163.04c.15.14,2.29-1.56,2.29-1.56l3.13,3.03-2.99-2.08-2.44.62Z"/>
          <path class="cls-13" d="M545.48,161.9s1,1.56,2.19,1.8l-2.19-.9-6.57,5.11,6.57-6.01Z"/>
        </g>
        <g>
          <ellipse class="cls-24" cx="163.96" cy="158.46" rx="52.87" ry="50.25"/>
          <ellipse class="cls-1" cx="163.96" cy="158.46" rx="38.06" ry="36.18"/>
          <ellipse class="cls-7" cx="163.96" cy="158.46" rx="31.72" ry="30.15"/>
          <path class="cls-3" d="M172.41,158.81l17.59-1.9-4.05-11.79-15.37,8.33c-.94-1.12-2.2-1.99-3.64-2.51l3.56-16.48h-13.05l3.56,16.48c-1.46.52-2.73,1.41-3.67,2.55l-15.43-8.23-3.96,11.81,17.6,1.79c.08,1.5.58,2.89,1.4,4.06l-13.01,11.39,10.59,7.25,7.25-15.35c.71.18,1.45.29,2.22.29s1.55-.11,2.27-.3l7.36,15.3,10.53-7.32-13.1-11.31c.81-1.18,1.31-2.57,1.37-4.07Z"/>
          <g class="cls-20">
            <polygon class="cls-7" points="147.82 175.7 153.87 179.89 160.44 167.62 153.89 178.81 147.82 175.7"/>
          </g>
          <path class="cls-8" d="M172.83,177.22c.07.21,1.27,2.67,1.27,2.67l8.21-5.44-7.54,4.11-1.94-1.35Z"/>
          <g class="cls-20">
            <path class="cls-7" d="M175.96,157.5c.9,0,12.61-1.42,12.61-1.42l-1.34-4.54.52,3.97-11.79,1.99Z"/>
          </g>
          <path class="cls-8" d="M141.11,152.53c-.07.28-1.64,3.55-1.64,3.55l15.52,1.94-13.96-2.43.07-3.05Z"/>
          <g class="cls-20">
            <path class="cls-7" d="M162.6,150.26s2.39-.35,3.73,0l3.06-13.9-3.4,13.19s-1.8.03-3.4.71Z"/>
          </g>
          <path class="cls-8" d="M164,164.28c-2.28,0-4.32-1.02-5.63-2.6,1.16,2,3.4,3.36,5.98,3.36,3.76,0,6.82-2.9,6.82-6.48,0-.18-.01-.36-.03-.54-.29,3.51-3.37,6.27-7.14,6.27Z"/>
          <path class="cls-13" d="M164.46,152.58c2.28-.14,4.15.33,5.51,1.88-1.22-1.97-3.5-3.27-6.07-3.2-3.76.1-6.73,3.08-6.62,6.66,0,.18.02.36.05.54.19-3.51,3.29-5.65,7.14-5.88Z"/>
          <polygon class="cls-13" points="142.04 149.85 142.74 146.73 146.32 148.58 143.13 147.68 142.04 149.85"/>
          <polygon class="cls-13" points="158.66 135.43 159.9 141.53 159.9 136.71 165.23 135.43 158.66 135.43"/>
          <path class="cls-13" d="M179.21,149.85c.65-.19,6.22-3.12,6.22-3.12l1.19,3.53-1.59-2.3-5.82,1.89Z"/>
          <path class="cls-13" d="M168.51,165.04c.15.14,2.29-1.56,2.29-1.56l3.13,3.03-2.99-2.08-2.44.62Z"/>
          <path class="cls-13" d="M157.07,163.9s1,1.56,2.19,1.8l-2.19-.9-6.57,5.11,6.57-6.01Z"/>
        </g>
      </g>
      <path class="cls-27" d="M698.32,146.49c-1.95,4.42-6.87,6.62-6.87,6.62-2.41,9.08-10.55,12.5-10.55,12.5l4.96,6.14h-56.94c-1.77-.08-5.04-.48-7.75-2.7-2.03-1.67-2.94-3.7-4.12-7.16-1.97-5.68-2.95-8.53-3.47-12.36-1.03-7.65-7.06-26.13-17.83-36.78-15.11-14.91-38.92-13.85-45.38-13.56-6.39.29-31.71,1.43-48.1,21.44-11.8,14.4-12.27,30.39-12.16,35.89.16,3.62-.35,8.1-3.54,10.94,0,0-2.01,1.79-5.18,2.44-9.63,1.97-203.7.36-245.09,0-7.1,0-8.3-11.44-8.3-11.44-8.17-24.7-8.73-53.47-60.53-53.43-51.81.04-61.83,34.19-61.83,34.19-5.01,22.06-13.36,24.25-13.36,24.25,0,0-26.18-.07-50.69,0-24.5.07-39.55-18.25-38.24-23.19,1.29-4.94,5.94-4.85,5.94-4.85l.37-15.44.16-1.11.07-.57.5-3.62c2.47-9.37,36.68-27.79,76.67-46.44,5.74-2.68,11.6-5.37,17.51-8.03,2.33-1.05,4.65-2.09,6.99-3.13.01-.01.03-.01.04-.02,34.01-15.17,68.44-29.3,88.7-37.46.26-.11.53-.22.78-.32,10.84-4.37,17.42-6.95,17.42-6.95,128.85-23.29,165.51-6.47,165.51-6.47,0,0,.26.21.76.61,37.19,30.08,55.93,44.97,78.46,53.04,20.85,7.47,41.71,8.84,56.94,9.84,7.2.48,6.02.11,23.15.78,28.75,1.14,49.95,2.89,56.82,3.48,11.19.96,25.43,2.35,41.95,4.4l11.11,20.48,7.55,13.93,5.1.35c16.48,5.16,22.81,11.9,25.19,16.86,1.14,2.39,1.37,4.37,1.37,5.56,0,.79-.09,1.23-.09,1.23,0,0,7.97,5.65,6.03,10.06Z"/>
      <ellipse class="cls-29" cx="301.99" cy="91.27" rx="16.88" ry="6.13"/>
      <path class="cls-29" d="M427.7,76c-2.58,0-4.88.46-6.43,1.19-.77-2.28-1.99-3.77-3.27-3.69-1.96.11-3.33,3.79-3.05,8.21.28,4.42,1.68,6.36,3.64,6.25,1.87-.11,3.61-1.91,3.49-6.06,1.49.54,3.46.87,5.63.87,4.66,0,8.44-1.51,8.44-3.38s-3.78-3.38-8.44-3.38Z"/>
      <path class="cls-18" d="M232.24,24.12s-12.45,10.05-4.56,11.38,59.96-9.73,61.01-9.82,72.48-3.85,72.48-3.85l23.46,20.67,28.06,24.97s-3-5.69-5.1-10.11-35.23-38.93-35.23-38.93c0,0-18.41-19.26-126.25,2.32,0,0-8.59.82-13.85,3.37Z"/>
      <path id="gövde-gölge" class="cls-18" d="M698.32,146.49c-1.95,4.42-6.87,6.62-6.87,6.62-2.41,9.08-10.55,12.5-10.55,12.5l4.96,6.14h-56.94c-1.77-.08-5.04-.48-7.75-2.7-2.03-1.67-2.94-3.7-4.12-7.16-1.97-5.68-2.95-8.53-3.47-12.36-1.03-7.65-7.06-26.13-17.83-36.78-15.11-14.91-38.92-13.85-45.38-13.56-6.39.29-31.71,1.43-48.1,21.44-11.8,14.4-12.27,30.39-12.16,35.89.16,3.62-.35,8.1-3.54,10.94,0,0-2.01,1.79-5.18,2.44-9.63,1.97-203.7.36-245.09,0-7.1,0-8.3-11.44-8.3-11.44-8.17-24.7-8.73-53.47-60.53-53.43-51.81.04-61.83,34.19-61.83,34.19-5.01,22.06-13.36,24.25-13.36,24.25,0,0-26.18-.07-50.69,0-24.5.07-39.55-18.25-38.24-23.19,1.29-4.94,5.94-4.85,5.94-4.85l.37-15.44.16-1.11c4.68-2.02,9.85-4.12,15.44-6.21,28.71-10.74,54.12-20.24,65-10.67,10.31,9.08,2.48,30.83,7.48,31.93,3.15.7,6.48-7.88,12.16-15.04,13.49-17,38.7-24.14,58.62-23.46,39.36,1.34,60.79,33.29,62.48,35.91,6.52,16.83,11.32,20.06,14.5,19.91,7.01-.32,6.99-17.2,20.57-28.97,6.23-5.39,13.91-8.5,36.48-11.39,24.62-3.15,37.69-2.28,68.27-2.66,8.47-.11,34.12-.51,67.85,1.04,13.77.63,33.47,1.79,36.89,10.89,2.16,5.73-2.34,14.05,3.28,20.07.83.89,1.76,1.86,3.12,2.02,6.59.75,10.71-22.05,11.78-25.07,1.87-2.48,26.46-26.72,63.19-25.91,28.75.63,54.91,18.49,65.92,45.21,1.48-5.57,5.36-16.94,15.91-27.37,4.67-4.62,9.66-8.06,14.42-10.61l7.55,13.93,5.1.35c16.48,5.16,22.81,11.9,25.19,16.86,1.14,2.39,1.37,4.37,1.37,5.56,0,.79-.09,1.23-.09,1.23,0,0,7.97,5.65,6.03,10.06Z"/>
      <path id="arkafar" class="cls-23" d="M46.58,135.02l-37.29-.48.04-1.05.54-15.18,31.96-.16c.15,0,.29.01.43.03,1.1.13,2.06.82,2.5,1.81l4.77,10.87c.87,1.99-.68,4.18-2.96,4.16Z"/>
      <path id="arkas" class="cls-17" d="M45.5,131.88l-4.25-11.06c-.15-.39-.55-.66-.99-.66h-1.58c-.71,0-1.22.66-1,1.3l3.71,11.06c.14.41.54.7,1,.7h2.11c.73,0,1.24-.69.99-1.34Z"/>
      <g id="tamponlar">
        <rect class="cls-7" x="0" y="139.26" width="94.16" height="4.54" rx="2.27" ry="2.27"/>
        <rect class="cls-7" x="627.05" y="142.46" width="72.95" height="4.54" rx="2.27" ry="2.27"/>
      </g>
      <path class="cls-7" d="M642.06,78.02h3.84c.67,0,1.27.35,1.58.92l18.35,33.85-5.11-.35-18.66-34.41Z"/>
      <path class="cls-3" d="M316.46,89.34h-20.97c-.5-1.53-1.98-2.65-3.75-2.65-2.18,0-3.94,1.68-3.94,3.75s1.77,3.75,3.94,3.75c1.77,0,3.25-1.12,3.75-2.65h20.97c.64,0,1.16-.49,1.16-1.1s-.52-1.1-1.16-1.1Z"/>
      <path class="cls-21" d="M316.46,90.7h-20.97c-.5,1.53-1.98,2.65-3.75,2.65-2.03,0-3.68-1.46-3.9-3.33-.02.14-.04.27-.04.42,0,2.07,1.77,3.75,3.94,3.75,1.77,0,3.25-1.12,3.75-2.65h20.97c.64,0,1.16-.49,1.16-1.1,0-.15-.03-.29-.09-.42-.17.4-.58.68-1.07.68Z"/>
      <g id="camlar">
        <path class="cls-33" d="M463.21,59.52c-30.22,14.95-38.99.61-38.99.61,0,0-32.73-31.78-40.67-38.33-7.95-6.56-3.4-10.56-3.4-10.56l4.61-4.76c6.81,5.5,57.69,46.24,78.46,53.04Z"/>
        <path class="cls-5" d="M463.21,59.52c-5.84,3.52-19.4,10.57-30.83,5.91-2.49-1.01-4.38-2.44-8.16-5.3-8.47-6.39-10.62-10.16-17.36-16.71-13.46-13.07-15.97-15.56-23.32-21.62-7.95-6.56-3.4-10.56-3.4-10.56,1.54-1.59,3.07-3.17,4.61-4.76"/>
        <g>
          <path class="cls-33" d="M415.19,68.16l-.31-.21-47.41-45.75c-.08-.08-.16-.16-.26-.25-2.82-2.49-15.52-8.02-72.39-1.82-71.31,7.78-93.99,17.56-103.81,23.33s-72.23,30.05,15.9,28.44l205.65-3.75h2.63Z"/>
          <path class="cls-5" d="M415.19,68.16l-.31-.21-47.41-45.75c-.08-.08-.16-.16-.26-.25-2.82-2.49-15.52-8-72.39-1.82-71.15,7.74-78.22,13.61-104.16,23.4-10.73,4.05-71.87,29.98,16.26,28.38l205.65-3.75h2.63Z"/>
        </g>
        <polygon class="cls-15" points="239.91 28.22 252.18 25.72 270.42 71.39 256.92 71.39 239.91 28.22"/>
        <polygon class="cls-15" points="350.73 17.89 355.64 17.89 376.16 68.72 371.6 68.72 350.73 17.89"/>
        <path class="cls-33" d="M200.3,19.97c0,2.22-1.34,4.36-3.64,5.34l-78.02,33.17c-2.45,1.05-5.3.44-7.05-1.41,34.01-15.17,68.44-29.3,88.7-37.46.01.12.01.24.01.36Z"/>
      </g>
      <path class="cls-23" d="M692.39,135.2h-22.32l4.8-5.56h16.15c.32.66.57,1.3.75,1.89.01.02.01.04.02.06.34,1.06.49,1.97.56,2.72h0c.03.34.04.64.04.89Z"/>
      <path id="far-s-gölge" class="cls-17" d="M44.85,131.91l-1.99-5.19c-.07-.19-.26-.31-.46-.31h-.74c-.33,0-.57.31-.47.61l1.74,5.19c.07.19.26.33.47.33h.99c.34,0,.58-.32.46-.63Z"/>
      <path id="far-gölge" class="cls-28" d="M44.54,133.93l-35.2-.44.54-15.18,31.96-.16c.15,0,.29.01.43.03.19.22.35.46.46.73l4.77,10.87c.87,1.99-.68,4.18-2.96,4.15Z"/>
      <path class="cls-9" d="M661.31,91.21c-1.98.3-4.59-.67-6.7-2.67-2.43-2.33-3.42-5.28-2.57-7.2.44.31.9.66,1.38,1.03,1.8,1.43,3.75,3.24,5.56,5.5.82,1.02,1.61,2.13,2.34,3.34Z"/>
      <polygon class="cls-12" points="675.28 130.18 671.56 134.54 675.6 134.54 673.58 133.82 675.28 130.18"/>
      <polygon class="cls-32" points="362.25 64.29 367.36 66.31 349.36 21.79 349.36 21.79 358.48 62.68 362.25 64.29"/>
      <polygon class="cls-30" points="378.84 65.51 407.57 65.51 385.13 44.38 399.97 62.74 378.84 65.51"/>
      <polygon class="cls-11" points="363.44 30.85 359.18 21.79 365.31 23.68 362.25 24.01 363.44 30.85"/>
      <polygon class="cls-30" points="189.26 68.72 252.91 67.85 241.34 36.73 243.09 63.01 189.26 68.72"/>
      <path class="cls-11" d="M171.9,66.33s-9.12-9.98,45.24-28.15c0,0-41.38,15.96-45.24,28.15Z"/>
      <path class="cls-11" d="M256.95,28.85l8.59,18.83-4.3-16.83s20.25-8.17,77.94-7.67c0,0-50.5-1.83-82.24,5.67Z"/>
      <ellipse class="cls-18" cx="132" cy="76.39" rx="9.7" ry="9.22"/>
      <ellipse class="cls-2" cx="125.98" cy="76.72" rx="1.64" ry=".78"/>
      <path class="cls-25" d="M73.74,77.88c-4.89.25-9.24.08-9.24.08l-24.1-1.31-13.86-.75s-8.82-2.61-12.55-7.93c-3.73-5.31.48-5.59.48-5.59.31,0,52.68-1.4,52.68-1.4,0,0,4.13-.93,16.97,8.68,8.15,6.09-1.91,7.79-10.38,8.22Z"/>
      <path class="cls-16" d="M66.76,75.44c-3.46.18-6.55.06-6.55.06l-17.08-.93-9.83-.53s-6.25-1.85-8.9-5.62c-2.64-3.76.34-3.96.34-3.96.22,0,37.34-.99,37.34-.99,0,0,2.92-.66,12.03,6.15,5.77,4.31-1.35,5.52-7.35,5.82Z"/>
      <path class="cls-15" d="M104.76,62.29l-15.37,7.23c-.4.19-.89.11-1.21-.19l-1.14-1.08c.29-.14.58-.27.87-.4.08-.05.17-.08.25-.12.18-.09.36-.17.55-.26.07-.04.16-.07.24-.11.18-.09.37-.17.56-.26.08-.04.17-.08.25-.11.18-.09.37-.18.55-.26.08-.04.17-.08.25-.12.18-.08.37-.17.55-.26.08-.03.17-.07.25-.11.19-.09.38-.17.56-.26.08-.04.17-.08.25-.11.18-.09.37-.17.55-.26.08-.04.17-.07.25-.11.18-.09.37-.17.55-.26.08-.04.18-.08.26-.11.19-.09.37-.18.56-.26.08-.04.16-.08.24-.11.19-.09.37-.18.56-.26.08-.04.17-.08.25-.11.19-.09.37-.17.55-.26.08-.04.17-.08.25-.11.19-.09.37-.17.56-.26.08-.04.17-.08.25-.11.19-.09.37-.17.56-.26.08-.04.17-.08.25-.11.19-.09.37-.17.56-.25.08-.05.17-.09.25-.12.18-.09.37-.17.55-.25.08-.04.17-.08.25-.12.19-.08.37-.17.56-.25.08-.04.16-.08.24-.12.19-.08.38-.16.57-.25.08-.04.17-.08.25-.11.19-.09.37-.17.56-.25.08-.04.16-.08.24-.12.19-.08.37-.17.56-.25.08-.04.17-.08.25-.12.18-.08.37-.16.56-.25.08-.03.17-.07.25-.11.36-.16.73-.33,1.08-.49l.48.46c.52.49.37,1.3-.27,1.61Z"/>
      <path class="cls-31" d="M89.33,69.02c-.05.05-.14.05-.18,0l-1.23-1.17c.08-.05.17-.08.25-.12l1.16,1.11c.05.05.05.13,0,.18Z"/>
      <path class="cls-31" d="M90.95,68.29c-.05.05-.13.05-.18,0l-1.25-1.19c.08-.04.17-.08.25-.11l1.18,1.12c.05.05.05.13,0,.18Z"/>
      <path class="cls-31" d="M92.58,67.56c-.05.05-.14.05-.19,0l-1.27-1.21c.08-.03.17-.07.25-.11l1.21,1.14s.04.13,0,.18Z"/>
      <path class="cls-31" d="M94.2,66.83c-.05.05-.14.05-.19,0l-1.28-1.22c.08-.04.17-.07.25-.11l1.22,1.15c.05.05.05.13,0,.18Z"/>
      <path class="cls-31" d="M95.82,66.1c-.05.05-.14.05-.19,0l-1.28-1.23c.08-.04.16-.08.24-.11l1.23,1.16c.05.05.05.13,0,.18Z"/>
      <path class="cls-31" d="M97.44,65.37c-.05.05-.14.05-.19,0l-1.3-1.24c.08-.04.17-.08.25-.11l1.24,1.18c.05.04.05.12,0,.17Z"/>
      <path class="cls-31" d="M99.06,64.64c-.05.05-.14.05-.18,0l-1.32-1.25c.08-.04.17-.08.25-.11l1.24,1.19c.05.04.05.12,0,.17Z"/>
      <path class="cls-31" d="M100.68,63.91c-.05.05-.13.05-.18,0l-1.33-1.25c.08-.04.17-.08.25-.12l1.25,1.2c.05.05.05.12,0,.17Z"/>
      <path class="cls-31" d="M102.31,63.18c-.05.05-.14.05-.19,0l-1.33-1.26c.08-.04.17-.08.25-.11l1.26,1.2s.04.13,0,.17Z"/>
      <path class="cls-31" d="M103.93,62.46c-.05.04-.14.04-.19,0l-1.34-1.27c.08-.04.17-.08.25-.12l1.27,1.21c.05.05.05.13,0,.18Z"/>
      <ellipse class="cls-10" cx="678.63" cy="120.41" rx=".93" ry="5.4" transform="translate(247.33 658.01) rotate(-61.32)"/>
      <path class="cls-4" d="M263.04,71.39s31.38,44.54,18.06,98.88"/>
      <path class="cls-4" d="M414.85,68.72s30.26,47.79,16.93,102.12"/>
      <path class="cls-3" d="M428.42,75.22c-.92,0-1.79.06-2.61.15-1.98-16.7-15.27-14.28-15.27-14.28v12.09c3.02,2.16,10.83-1.32,10.83-1.32l1.29,4.2c-1.38.49-2.24,1.17-2.24,1.91,0,1.52,3.58,2.75,8,2.75s8-1.23,8-2.75-3.58-2.75-8-2.75Z"/>
      <g class="cls-6">
        <path d="M420.72,71.26s-6.83,3.04-10.19,1.66v.26c2.62,1.86,8.81-.48,10.43-1.15l-.24-.78Z"/>
        <path d="M425.16,74.76c.18-.02.37-.03.55-.05-.76-5.41-2.74-8.72-5.04-10.73,2.11,2.14,3.86,5.5,4.49,10.78Z"/>
        <path d="M435.55,76.73c.14.2.22.42.22.64,0,1.52-3.58,2.75-8,2.75-3.12,0-5.81-.62-7.13-1.51.83,1.21,4,2.12,7.78,2.12,4.42,0,8-1.23,8-2.75,0-.45-.32-.87-.87-1.24Z"/>
      </g>
      <path class="cls-32" d="M405.6,36.73s25.84,38.98,48.75,23.31c0,0-20.69,7.27-48.75-23.31Z"/>
    </g>
  </g>
</svg>