<?xml version="1.0" encoding="utf-8"?>
<svg xmlns="http://www.w3.org/2000/svg" viewBox="0 0 500 500" xmlns:bx="https://boxy-svg.com">
  <defs>
    <bx:export>
      <bx:file format="svg" href="#Capa_1"/>
    </bx:export>
  </defs>
  <g id="Capa_1" transform="matrix(1, 0, 0, 1, -40.8467, 45.6717)">
    <path style="" d="M 342.272 130.191 C 332.003 123.479 318.52 119.452 303.848 118.631 L 303.848 115.961 C 303.848 115.457 303.796 114.965 303.702 114.488 C 303.798 114.009 303.849 113.515 303.849 113.009 L 303.849 89.342 C 303.849 76.935 293.755 66.842 281.349 66.842 L 266.5 66.842 C 261.426 66.842 255.266 62.485 253.574 57.7 L 248.566 43.522 C 247.186 39.616 242.9 37.57 238.997 38.949 C 235.091 40.329 233.044 44.614 234.424 48.519 L 239.433 62.697 C 243.227 73.432 255.117 81.841 266.501 81.841 L 281.35 81.841 C 285.486 81.841 288.85 85.205 288.85 89.341 L 288.85 113.008 C 288.85 113.512 288.902 114.005 288.996 114.481 C 288.9 114.96 288.849 115.454 288.849 115.96 L 288.849 118.63 C 274.177 119.451 260.695 123.478 250.425 130.19 C 236.421 139.342 229.02 152.727 229.02 168.9 L 229.02 271.566 C 229.02 302.204 252.744 322.001 289.459 322.001 L 303.238 322.001 C 339.954 322.001 363.677 302.204 363.677 271.566 L 363.677 168.901 C 363.677 152.728 356.276 139.343 342.272 130.191 Z M 348.677 168.901 L 348.677 199.285 L 303.848 199.285 L 303.848 133.659 C 326.982 135.186 348.677 146.251 348.677 168.901 Z M 288.848 133.659 L 288.848 199.284 L 244.019 199.284 L 244.019 168.9 C 244.019 146.251 265.714 135.186 288.848 133.659 Z M 303.238 307.001 L 289.459 307.001 C 278.8 307.001 244.02 304.446 244.02 271.566 L 244.02 214.284 L 348.677 214.284 L 348.677 271.566 C 348.677 304.446 313.897 307.001 303.238 307.001 Z"/>
  </g>
  <path stroke-width="0" d="M 234.67 171.884 C 239.372 171.4 247.451 172.075 251.557 173.493 C 254.611 174.547 256.583 176.401 258.192 178.116 C 259.579 179.596 260.402 181.169 261.006 182.941 C 261.632 184.776 262.256 186.659 261.81 188.973 C 261.226 192.004 257.503 198.257 256.382 199.628 C 255.94 200.169 255.607 199.496 255.377 200.231 C 254.554 202.869 257.216 223.785 256.985 228.779 C 256.879 231.075 256.184 231.233 256.181 232.8 C 256.178 234.733 257.814 237.099 257.387 239.635 C 256.858 242.788 254.161 247.967 251.959 250.29 C 250.199 252.148 247.947 252.916 245.928 253.507 C 244.059 254.054 242.032 254.072 240.299 253.909 C 238.704 253.759 237.578 252.514 235.876 252.703 C 233.702 252.944 231.128 255.631 228.236 256.322 C 225.04 257.085 221.075 257.264 217.38 256.724 C 213.446 256.148 208.286 254.4 205.318 252.703 C 203.002 251.379 201.784 250.478 200.292 248.079 C 198.186 244.694 195.991 238.552 195.065 232.8 C 194.015 226.276 194.113 216.994 195.065 210.685 C 195.865 205.376 197.083 201.247 199.488 197.014 C 202.013 192.569 205.984 188.356 210.143 184.751 C 214.45 181.017 220.584 177.275 225.02 175.101 C 228.572 173.36 230.837 172.279 234.67 171.884 Z" style="stroke-width: 2px; stroke: rgb(0, 0, 0);"/>
</svg>