<?xml version="1.0" encoding="utf-8"?>
<svg xmlns="http://www.w3.org/2000/svg" viewBox="0 0 500 500" xmlns:bx="https://boxy-svg.com">
  <defs>
    <bx:export>
      <bx:file format="svg" href="#Capa_1"/>
    </bx:export>
  </defs>
  <g id="Capa_1" transform="matrix(1, 0, 0, 1, -40.8467, 45.6717)">
    <path style="" d="M 342.272 130.191 C 332.003 123.479 318.52 119.452 303.848 118.631 L 303.848 115.961 C 303.848 115.457 303.796 114.965 303.702 114.488 C 303.798 114.009 303.849 113.515 303.849 113.009 L 303.849 89.342 C 303.849 76.935 293.755 66.842 281.349 66.842 L 266.5 66.842 C 261.426 66.842 255.266 62.485 253.574 57.7 L 248.566 43.522 C 247.186 39.616 242.9 37.57 238.997 38.949 C 235.091 40.329 233.044 44.614 234.424 48.519 L 239.433 62.697 C 243.227 73.432 255.117 81.841 266.501 81.841 L 281.35 81.841 C 285.486 81.841 288.85 85.205 288.85 89.341 L 288.85 113.008 C 288.85 113.512 288.902 114.005 288.996 114.481 C 288.9 114.96 288.849 115.454 288.849 115.96 L 288.849 118.63 C 274.177 119.451 260.695 123.478 250.425 130.19 C 236.421 139.342 229.02 152.727 229.02 168.9 L 229.02 271.566 C 229.02 302.204 252.744 322.001 289.459 322.001 L 303.238 322.001 C 339.954 322.001 363.677 302.204 363.677 271.566 L 363.677 168.901 C 363.677 152.728 356.276 139.343 342.272 130.191 Z M 348.677 168.901 L 348.677 199.285 L 303.848 199.285 L 303.848 133.659 C 326.982 135.186 348.677 146.251 348.677 168.901 Z M 288.848 133.659 L 288.848 199.284 L 244.019 199.284 L 244.019 168.9 C 244.019 146.251 265.714 135.186 288.848 133.659 Z M 303.238 307.001 L 289.459 307.001 C 278.8 307.001 244.02 304.446 244.02 271.566 L 244.02 214.284 L 348.677 214.284 L 348.677 271.566 C 348.677 304.446 313.897 307.001 303.238 307.001 Z"/>
  </g>
  <path stroke-width="0" d="M 268.043 171.884 C 270.289 171.584 272.051 171.868 274.074 172.688 C 276.402 173.632 279.739 176.448 281.11 177.714 C 281.916 178.459 281.861 179.268 282.518 179.524 C 283.233 179.802 284.263 179.093 285.332 179.122 C 286.617 179.156 288.16 179.238 289.755 179.926 C 291.773 180.796 294.743 182.582 296.389 184.55 C 298.007 186.483 297.792 189.64 299.606 191.586 C 301.631 193.758 306.486 194.73 308.452 196.612 C 309.999 198.093 310.508 199.406 311.267 201.437 C 312.219 203.987 312.857 207.255 313.277 211.087 C 313.803 215.886 314.232 223.086 313.679 228.377 C 313.176 233.19 312.22 237.826 310.462 241.646 C 308.837 245.177 306.171 248.615 303.828 250.692 C 301.906 252.396 300.082 253.291 297.797 253.909 C 295.308 254.582 292.817 254.653 289.353 254.311 C 284.652 253.847 276.503 250.97 271.661 250.29 C 267.962 249.771 265.296 250.827 262.413 249.888 C 259.456 248.926 256.075 247.088 254.171 244.46 C 252.132 241.646 250.685 237.107 250.954 233.202 C 251.247 228.959 256.733 223.277 256.583 219.933 C 256.473 217.473 253.771 216.534 252.965 214.304 C 252.059 211.801 251.302 208.432 251.758 205.458 C 252.247 202.271 255.937 199.061 256.181 195.808 C 256.42 192.626 253.037 189.422 253.367 186.158 C 253.72 182.66 256.202 177.887 258.795 175.503 C 261.202 173.29 265.31 172.249 268.043 171.884 Z" style="stroke-width: 2px; stroke: rgb(0, 0, 0);"/>
</svg>