<?xml version="1.0" encoding="UTF-8"?>
<svg id="Layer_2" data-name="Layer 2" xmlns="http://www.w3.org/2000/svg" viewBox="0 0 1057.01 656.34">
  <defs>
    <style>
      .cls-1 {
        fill: #29abe2;
        opacity: .5;
      }

      .cls-2 {
        fill: aqua;
        opacity: .48;
      }

      .cls-3 {
        fill: #ccc;
      }

      .cls-4 {
        fill: #b3b3b3;
      }

      .cls-5 {
        fill: gray;
      }

      .cls-6 {
        fill: #182f47;
      }
    </style>
  </defs>
  <g id="Layer_1-2" data-name="Layer 1">
    <path class="cls-3" d="M1030.01,29.34v600H30.01V29.34h1000M1030.01,2.34H30.01C15.1,2.34,3.01,14.43,3.01,29.34v600c0,14.91,12.09,27,27,27h1000c14.91,0,27-12.09,27-27V29.34c0-14.91-12.09-27-27-27h0Z"/>
    <path d="M1030.01,29.34v600H30.01V29.34h1000M1030.01,6.34H30.01c-12.7,0-23,10.3-23,23v600c0,12.7,10.3,23,23,23h1000c12.7,0,23-10.3,23-23V29.34c0-12.7-10.3-23-23-23h0Z"/>
    <g>
      <path class="cls-4" d="M128.86,1.66v2.5h-37V1.66c0-.17.03-.34.08-.5.21-.67.83-1.16,1.58-1.16h33.67c.75,0,1.38.49,1.59,1.16.05.16.08.33.08.5Z"/>
      <path class="cls-5" d="M128.78,1.16h-36.84c.21-.67.83-1.16,1.58-1.16h33.67c.75,0,1.38.49,1.59,1.16Z"/>
    </g>
    <g>
      <path class="cls-4" d="M184.25,1.83v2.5h-37V1.83c0-.17.03-.34.08-.5.21-.67.83-1.16,1.58-1.16h33.67c.75,0,1.38.49,1.59,1.16.05.16.08.33.08.5Z"/>
      <path class="cls-5" d="M184.17,1.33h-36.84c.21-.67.83-1.16,1.58-1.16h33.67c.75,0,1.38.49,1.59,1.16Z"/>
    </g>
    <g>
      <path class="cls-4" d="M1.66,57.41h2.5v37H1.66c-.17,0-.34-.03-.5-.08-.67-.21-1.16-.83-1.16-1.58v-33.67c0-.75.49-1.38,1.16-1.59.16-.05.33-.08.5-.08Z"/>
      <path class="cls-5" d="M1.16,57.49v36.84c-.67-.21-1.16-.83-1.16-1.58v-33.67c0-.75.49-1.38,1.16-1.59Z"/>
    </g>
    <circle class="cls-6" cx="19.7" cy="329.34" r="4.72"/>
    <circle class="cls-1" cx="18.6" cy="327.92" r="1.92"/>
    <circle class="cls-2" cx="18.11" cy="327.05" r=".62"/>
  </g>
</svg>