<?xml version="1.0" encoding="UTF-8"?>
<svg id="Layer_2" xmlns="http://www.w3.org/2000/svg" viewBox="0 0 1131.33 711.87">
  <defs>
    <style>
      .cls-1 {
        fill: #7b4d27;
      }

      .cls-2 {
        fill: #056937;
      }

      .cls-3 {
        opacity: .13;
      }

      .cls-4 {
        fill: #5e351d;
      }

      .cls-5 {
        opacity: .21;
      }

      .cls-6 {
        opacity: .06;
      }

      .cls-6, .cls-7 {
        fill: #fff;
      }

      .cls-8 {
        opacity: .26;
      }

      .cls-7 {
        opacity: .24;
      }

      .cls-9 {
        fill: #734d27;
      }

      .cls-10 {
        fill: #754c24;
      }
    </style>
  </defs>
  <g id="Layer_1-2" data-name="Layer_1">
    <g>
      <g>
        <polygon class="cls-1" points="1091.2 654.47 565.67 654.47 40.13 654.47 0 694.61 565.67 694.61 1131.33 694.61 1091.2 654.47"/>
        <rect class="cls-4" y="694.61" width="1131.33" height="17.27"/>
        <polygon class="cls-4" points="565.67 661.77 564.64 661.77 50.32 661.77 50.32 670.74 564.64 670.74 565.67 670.74 1079.99 670.74 1079.99 661.77 565.67 661.77"/>
        <polygon class="cls-4" points="33.39 687.66 50.32 670.74 50.32 661.77 24.48 687.62 33.39 687.66"/>
        <polygon class="cls-7" points="33.39 687.66 50.32 670.74 50.32 661.77 24.48 687.62 33.39 687.66"/>
        <polygon class="cls-4" points="1096.92 687.49 1079.99 670.56 1079.99 661.6 1105.83 687.44 1096.92 687.49"/>
        <polygon class="cls-8" points="1096.92 687.49 1079.99 670.56 1079.99 661.6 1105.83 687.44 1096.92 687.49"/>
        <polygon class="cls-6" points="33.39 687.66 50.32 670.74 1079.99 670.56 1096.92 687.49 33.39 687.66"/>
      </g>
      <rect class="cls-9" x="39.87" width="1052.63" height="654.55"/>
      <rect class="cls-2" x="66.19" y="27.27" width="1000" height="600"/>
      <polygon class="cls-3" points="1066.66 27.27 1066.66 39.7 78.91 39.7 78.91 620.46 1066.66 622.69 1066.66 627.28 78.91 627.28 66.66 627.28 66.66 27.27 1066.66 27.27"/>
      <polygon class="cls-5" points="39.87 654.55 66.19 627.28 66.19 27.27 39.87 0 39.87 654.55"/>
      <polygon class="cls-5" points="1066.19 627.28 1092.5 654.55 1092.5 0 1066.19 27.27 1066.19 627.28"/>
      <polyline class="cls-10" points="69.83 627.28 69.83 32.22 1066.19 32.22 1066.19 27.27 66.19 27.27 66.19 627.28"/>
    </g>
  </g>
</svg>