<?xml version="1.0" encoding="UTF-8"?>
<svg id="Layer_2" xmlns="http://www.w3.org/2000/svg" viewBox="0 0 878.88 372.83">
  <defs>
    <style>
      .cls-1 {
        fill: #556080;
      }

      .cls-2 {
        fill: #6f9c76;
        stroke: #fff;
        stroke-width: .5px;
      }

      .cls-2, .cls-3 {
        stroke-linecap: round;
        stroke-linejoin: round;
      }

      .cls-4 {
        font-size: 22.61px;
      }

      .cls-4, .cls-5, .cls-6, .cls-7 {
        isolation: isolate;
      }

      .cls-4, .cls-6, .cls-8, .cls-9, .cls-7 {
        font-family: Eurostile-BlaIta, Eurostile;
      }

      .cls-10 {
        fill: #a32421;
      }

      .cls-11 {
        stroke-dasharray: 2 1;
      }

      .cls-11, .cls-12 {
        stroke: #000;
        stroke-miterlimit: 10;
      }

      .cls-11, .cls-3 {
        fill: none;
      }

      .cls-13 {
        letter-spacing: -.02em;
      }

      .cls-12 {
        fill: #ddffea;
        stroke-width: 2px;
      }

      .cls-6, .cls-7 {
        font-size: 25.07px;
      }

      .cls-14 {
        fill: #c62223;
      }

      .cls-8, .cls-9 {
        font-size: 20.98px;
      }

      .cls-8, .cls-15 {
        fill: #dd352e;
      }

      .cls-16 {
        fill: #f76363;
      }

      .cls-3 {
        stroke: red;
      }

      .cls-7 {
        letter-spacing: 0em;
      }

      .cls-17 {
        fill: #e31e24;
      }

      .cls-18 {
        letter-spacing: 0em;
      }
    </style>
  </defs>
  <g id="Layer_2-2" data-name="Layer_2">
    <path id="TR" class="cls-12" d="M816.24,62.03c-.48,5.02,4.82,6.08,7.53,8.97,1.83,1.93,2.22,4.82,3.18,7.24,1.06,2.8,2.61,5.6,2.22,8.68-.48,4.25-2.41,8.2-5.31,11.19-2.12,2.12,0,4.44.19,6.85-.19,2.89.96,5.4,2.41,7.72,5.11,8.59-5.31,7.33,6.66,12.54,2.89,1.06,5.98,2.41,8.97,2.61,2.22,0,4.05-.58,6.46-.77,7.53-1.64,15.34,2.32,19.2,8.78,2.89,4.53,8.88,7.33,10.13,12.74,0,.68-.29.77-1.06.39-2.41-1.25-4.92-3.76-7.33-4.82-6.85-1.45-8.01,10.42-8.97,15.24-1.25,8.68-7.04,5.11-13.03,5.4-5.31.48-4.05,3.18-2.89,6.66.58,2.41.96,5.02,2.99,6.66.87.87,1.83,1.83,2.22,2.99.87,3.57-1.54,6.95-.39,10.61.58,1.64,1.45,3.18,2.51,4.53.96,1.06,1.83,1.83,2.03,3.18.29,1.74-.19,3.86-.39,5.6-.39,3.47,1.74,5.79,1.83,9.36.68,3.38-1.54,7.91,1.06,10.61,1.16.87,3.28.68,4.53,1.45,2.32,1.83-.29,4.44-1.25,6.66-.87,1.93-1.06,4.25-1.93,6.17-1.16,3.28-10.23,13.31-3.57,15.53,1.35.39,2.89.58,4.05,1.45,1.64.96,2.32,2.89,3.57,3.67,1.93,1.25,4.92,1.16,5.98,3.57.48,1.35-.19,2.8-.39,4.25-.19,2.61,1.16,5.79.58,8.59-.58,5.21,4.53,6.75,7.62,9.84,2.41,2.03,2.22,4.73,1.35,7.53-.1.77-.29,1.83-.77,2.22-1.93.58-4.34-.68-6.46,0-3.09.68-4.92,3.57-7.72,5.31-1.83,1.06-3.76,2.03-5.21,3.67-.96.96-1.83,1.93-2.89,1.64-1.16-.29-1.93-1.45-2.41-2.61-.48-1.06-.77-2.22-.77-3.38,0-2.99,2.41-4.63,1.93-7.14-1.16-4.92-8.68-7.43-12.54-4.25-1.83,1.45-3.28,3.57-5.6,3.86-2.89.29-5.89-.96-8.88-.77-4.92-.39-9.07-1.54-13.22-4.05-1.74-.68-3.57-.77-5.4-1.35-1.93-.68-4.25-1.93-6.27-2.03-2.99-.39-5.5,1.83-8.1,1.93-2.7.29-5.21-2.22-7.82-1.83-6.95,3.09-6.08,14.96-17.08,13.51-2.7-1.06-1.35-5.89-3.57-7.62-1.64-1.35-4.15-3.57-6.27-2.03-1.83,1.25-3.09,3.28-4.92,4.53-2.22,1.74-5.21,2.8-7.62,3.47-4.25,1.25-9.07,2.8-13.8,3.57-10.42,1.83-18.33.19-27.98-.96-5.98-.58-11.58-.39-18.43,2.99-2.32,1.06-4.63,1.93-6.95,2.89-6.56,2.89-11.48,7.53-18.33,9.84-11.1,5.79-24.99,8.3-37.44,9.74-3.09,0-6.37-1.45-9.74-1.54-4.15-.39-8.39.68-12.45-.48-4.15-1.45-6.95-5.11-10.52-7.43-4.05-2.89-10.23-5.21-15.53-3.67-6.75,2.22-13.12,6.95-20.17,8.59-2.22.58-4.44,1.25-6.46,2.22-7.72,4.73-10.61,3.38-18.91,3.09-2.51,0-4.53,1.35-6.46.39-1.35-.87-1.54-4.25-3.28-5.4-2.99-2.22-7.14-2.61-10.71-3.76-7.43-3.18-6.95,11.19-8.3,15.53-1.64,4.73.77,9.74,3.57,13.31,4.34,6.95-9.36,3.57-11.87,5.98-.68.77-.68,1.54-.77,2.61-.39,11,.77,6.37-7.43,12.45-1.06,1.25-1.45,3.96-2.51,4.73-2.7,1.45-5.5-1.83-7.43-2.99-.68-.48-1.64-.96-1.93-1.83,0-1.54,1.74-5.02.77-7.04-1.16-3.76-3.76-7.33-5.79-10.71-1.54-2.32-1.35-4.82.39-6.75,3.18-3.67,6.56-7.14,10.42-10.03,6.66-3.96,7.72-7.33,5.31-14.86-1.25-2.89-4.25-6.56-7.14-6.66-3.67.1-5.6,4.25-8.39,6.08-3.09,2.8-9.17,1.93-11.39,5.5.29.96,1.74-.39,2.8-.39.58-.1.77.19.29.77-.39.58-1.16,1.25-1.54,1.83,0,.29,1.35-.77,1.45-.58,0,.48-.29,1.06-.58,1.54-1.25,2.51-3.18,3.76-5.98,3.38-.77,0-1.06.19-1.74.48-.96.29-1.83.29-2.89.68-2.8,1.35-5.21,1.25-7.62-.68-3.67-2.12-8.39-5.89-12.45-7.04-3.86-.58-5.79-4.15-9.46-5.31-7.53-1.93-12.83,5.69-18.62,9.36-1.45,1.06-2.89,2.03-4.25,3.28-2.22,2.12-3.96,5.02-6.17,7.24-1.93,1.74-2.99,4.15-3.67,6.56-.48,1.74-2.41,2.12-3.47,3.96-.48.58-.87,1.35-1.45,1.83-.39.19-.39,0-.68-.29-1.35-2.51-3.38-3.86-5.5-1.35-1.54,1.83-3.57,3.57-5.4,5.31-1.25.96-2.32.19-4.05.58-1.35.19-2.41,1.35-3.76,1.35-5.4-.87-11.1.68-16.69,1.06-1.83.39-3.28,1.35-5.02,1.64-1.54.29-3.67-.1-5.31.19-2.41.19-3.86,1.93-5.98,2.7-6.56,2.03-18.81-5.5-22.96-10.23-4.34-5.6-7.53-12.83-13.12-17.37-3.96-2.41-8.88-2.99-12.93-5.4-5.02-2.7-10.03-5.31-15.24-7.82-2.03-1.25-2.89-2.41-5.21-2.8-6.56-1.35-14.38-2.89-20.94-2.61-2.61,0-5.79-1.16-7.72-1.25-4.25.68-5.4,7.04-5.31,10.71-.29,3.38.87,6.08-.48,9.07-1.06,2.51-3.09,4.92-2.99,7.82,0,1.35.29,2.61.1,3.86-.29,1.74-1.45,3.38-2.61,4.73-.29.29-.68.68-1.16.58-.68-.19-1.16-.87-1.64-1.35-1.54-1.45-4.05-2.03-6.46-2.41-2.03-.48-3.96,1.06-5.21,2.22-1.35.58-2.61.48-4.05,1.06-2.41,1.06-5.11,1.64-7.62,2.61-1.74.68-2.99,2.7-4.82,2.51-.68,0-1.25,0-1.93.1-1.06,0-2.51.29-3.38-.48-.96-.87-1.35-1.64-2.32-2.12-1.25-.48-2.7-.77-4.05-1.06-2.61-.68-3.96-1.83-5.98-1.93-.87,0-1.83-.1-2.61-.48-2.32-1.35-4.53-3.76-6.85-5.21-1.16-.77-2.51-1.74-2.41-3.28-.48-2.32.48-5.31-.87-7.33-.68-.96-2.22-.87-2.99-1.83-.58-.77.1-1.74.48-2.41.87-1.25,2.51-1.54,2.03-2.61-1.74-2.41-7.14-6.46-9.36-2.89-.68.96-1.45,2.51-.19,3.18.19.58-1.35,2.12-2.03,1.45-.58-.48-1.16-1.16-1.54-1.83-1.54-2.41-5.31-2.41-7.53-3.57-.87-.87-1.35-2.51-1.54-3.76-.39-3.57-4.15-.39-5.69-2.41-1.35-2.32-3.28-3.76-3.96-.1-.39.87-1.54,1.06-2.51,1.16-.77,0-1.54,0-2.03-.48-.29-.39-.77-1.54-1.35-1.06-.29.29-.68.87-.68,1.64.29,2.12,1.54,4.15-.96,5.31-3.67,1.64-6.37,8.78-11.19,7.43-.39-.29-.19-.68.48-1.25.77-.58,1.64-.96,2.41-1.54,1.54-1.54-.48-2.51-1.74-2.99-2.61-1.06,2.7-2.12,3.28-2.51.68-.48.68-1.35.96-2.03,1.25-3.38-4.92.39-6.46.19-3.28.96-6.46-.39-9.74.19-2.41.39-3.18,3.86-5.21,4.34-2.22.29-4.63,0-6.85.48-1.64.1-3.09.1-4.44-.77-2.89-1.64,5.98-4.73,7.14-4.63,3.09-1.25,5.69-1.93,8.97-1.74,2.99-.48,6.17-1.06,9.17-.39,1.25.19,3.67.48,3.76-1.06,0-1.93.29-4.15.68-5.98.77-1.16,2.61-.68,3.86-.58,1.16,0,2.03,0,2.61-1.16.87-1.25,1.74-2.22,3.18-3.09,6.66-3.86-5.69-1.35-7.43-1.25-7.24-.48-14.09,1.64-21.32,1.93-2.22.39-4.34.48-6.56-.39-1.74-.77-4.05-1.25-5.79-.58-1.16.39-2.41,2.22-3.47,1.93-2.8-1.64-1.83-6.27,0-8.1.58-.87,1.83-1.25,2.7-1.45.96-.19,2.7.68,3.76,1.35,1.45,1.06,4.53.87,5.6-.77.48-.87,0-2.22.48-2.99.39-.48,1.16-.58,1.54-1.16.19-.39.29-.68.39-1.06.58-4.92-2.7-.87-4.44-1.93-1.16-.77-.87-2.32-1.16-3.57-.29-.58-1.93-.29-2.61-1.06-.87-.77,0-3.09-.77-3.67-2.12-.19-3.28,2.51-5.4,2.61-1.06.19-2.32.19-2.8-.39-.96-.68-.1-3.09-.29-4.53-.19-1.64-1.16-2.8-1.25-4.34.96-5.02,0-5.89-4.73-7.72-6.85-2.99,4.15-2.51,5.89-4.92,1.83-1.45,1.74-3.86,1.74-5.98,0-5.11,1.83-8.1-4.34-9.36-2.41-.68-4.05-2.41-6.17-3.38-2.51-1.64-6.37.96-7.91-2.03-.87-1.93-1.93-4.44-3.28-5.89-1.83-2.41-6.17-1.74-7.14,1.35-.48,1.35-1.25,2.7-2.8,1.74-1.83-1.35-3.76-3.47-5.89-4.44-.07,0-.2-.1-.39-.29-.87-.77-1.25-1.25-2.12-1.54-1.74-.58-4.15-.58-5.31-2.12-.48-.48,0-1.25.19-1.64.58-.96,1.06-2.32,1.74-3.18.19-.1.48.19,1.06.58.77.68,1.54,1.16,2.89.77,2.51-.77,3.57-3.57,4.25-5.6.19-1.35-2.12-1.74-2.89-2.32-.96-.58-1.35-1.64-1.64-2.7-.58-2.12-1.64-4.63-.96-6.85.68-2.32,3.47-2.7,5.31-1.64,2.99,1.64,5.98,6.56,6.75,9.55.19,1.25-.87,2.32-.87,3.57.29,1.45.96,3.09,1.74,4.44,2.41,4.15,1.16-1.35,2.51-2.51,1.83-1.25,3.47,2.12,5.6,1.93,2.51.19,5.6-1.06,8.2-1.74,1.93-.58,5.21-.58,6.46-2.51,0-1.16-2.8-.87-3.86-.77-1.93.1-3.76.68-5.5-.19-1.35-.87-3.18-2.89-4.05-3.57,0-.19.48-.1.58-.39.39-1.64-1.35-3.86-2.7-4.82-2.89-1.06-4.25-5.5-1.25-7.43,1.83-1.06,4.73-.1,6.37-1.54.77-.87.19-2.12.77-2.89,1.54-1.45,3.67-2.41,5.02-4.25,1.54-2.03-1.25-3.09-2.99-2.89-2.12,0-4.53.68-6.37-.77-1.35-1.35-1.93-3.67-.68-5.21.48-.68,1.06-1.35,1.35-2.12,1.54-3.18-2.7-5.31-4.15-7.53-.77-1.06-1.45-2.22-2.41-2.99-1.25-1.25-2.8-1.74-3.28-2.89,0-.19,0-.39.29-.48,2.99-.77,5.69-4.53,7.72-6.75,1.35-2.61,7.62-5.5,4.92-8.97-1.06-.96-3.18-.58-4.53-.29-4.44.96-9.94,1.35-14.57,2.51-5.4,1.83-10.71,3.57-16.4,3.57-6.46-1.54,1.54-9.46.48-13.41,0-5.79-1.35-11.96,1.54-17.17,1.45-1.64,4.34-1.64,6.17-3.38,4.63-4.73,2.03-8.68,9.07-11.87,4.92-3.18,7.53-10.81,14.09-10.32,2.99,0,6.37,1.16,9.17-.39,2.22-1.35,4.53-2.61,7.24-2.61,2.22-.19,4.53-.58,5.69,1.25,1.83,6.46,8.97,7.72,14.76,6.66,3.38,0,7.14.58,9.65-2.22,1.74-2.03-1.54-2.61-2.8-4.05-1.64-1.35-4.25-4.44-1.74-5.69,1.54-.48,2.99,0,5.31.1,2.61.39,5.89.58,6.95,2.41.39,1.93-2.7,2.99-3.38,4.63-.58,3.18,7.14.68,8.88.48,5.02-.58,11-.87,16.02,0,2.7.39,5.6.96,8.2,1.06,2.12,0,4.25-1.06,6.37-1.06,5.4.29,10.81,4.15,14.67-2.03,1.64-4.25-6.56-2.22-8.49-3.09-1.64-.48-3.38-1.25-4.63-2.32-.96-.87-.96-1.74,0-2.61,7.43-6.46,13.41-4.73,22-7.14,3.28-1.06,5.4-1.35,8.3-2.12,1.93-.48,3.86.77,5.89.68,3.09-.29,6.56-1.54,9.55-1.54.39-.1,6.08.39,3.96-1.35-1.35-.68-3.57-.39-5.11-.68-3.57-.77-6.66-1.54-10.32-1.16-3.57-.48-7.91,1.93-10.61-1.06-.29-.19-.58-.48-.96-.68-1.25-.87-1.74-.96-1.93-2.12-.29-1.45-1.93-2.32-3.18-3.09-2.89-1.83-6.46-3.67-7.82-6.85-.48-2.22,1.06-4.25,1.74-6.27,1.16-4.15,2.12-7.24,6.56-7.53,8.3-.39,16.79,3.28,24.99,4.05,7.04,1.16,15.34,2.51,20.65-.48,2.03-1.25,4.15-2.32,6.46-1.35,7.62,2.51,16.5,5.69,24.41,6.95,5.5-.1,11.87-.29,17.17-1.83,3.28-1.35,6.37-4.53,6.85-8.3.19-1.74,0-3.76,1.64-4.82,9.36-4.15,18.62-10.42,27.79-15.34,4.73-1.35,7.14-5.98,10.9-8.68,2.03-1.45,4.34-1.74,6.56-2.99,2.03-1.06,4.05-2.51,6.17-3.38,3.38-1.45,6.95-1.74,10.52-2.7,7.33-1.64,14.67-4.92,21.61-8.3,2.41-1.16,4.92-1.45,7.53-1.16,12.16,1.16,25.38,1.93,37.63,3.38,3.57.58,7.04-.68,10.61-.48,7.14,1.06,15.53,2.51,20.17-4.53,1.25-2.12,3.47-4.25,5.69-1.74.87.77,1.74,1.64,2.89,1.93,1.06.58,5.89-.29,2.8,1.35-6.85,4.15,1.06,11.48,3.76,15.82,3.28,3.28,8.1,5.02,12.35,7.04,5.31,1.64,10.61-1.74,15.63-3.38,1.35-.58,2.61-1.16,3.18-1.16s.48.68.48,1.06c0,.29-.58,1.83-.48,1.83l.19-.19c0-.1.19-.29.29-.48.68-1.54,2.7-2.41,4.25-1.35,3.76,2.03,5.02,8.1,4.73,12.45.96,5.98,7.14,9.65,11.1,13.6,1.83,1.93,4.92,2.12,7.04.48,2.8-1.93,3.47-5.79,6.95-5.79,5.6,0,12.35,1.93,15.44,6.75,2.51,7.53,4.82,5.79,11.39,7.04,4.92.68,8.49,5.31,13.31,5.79,2.61,0,3.67-2.99,5.5-4.15,3.96-2.12,5.5,3.09,7.72,5.31,2.22,2.22,5.31,2.22,8.39,2.89,2.89.77,5.89,1.93,8.88,2.12,4.25.48,8.3,2.12,12.64,1.16,2.41-.39,4.53-2.12,6.75-2.22,4.63.58,7.72-3.09,11.96-4.15,3.76-.96,7.91-1.16,11.67-2.22,2.22-.39,4.53.48,6.85,0,2.12-.39,4.05-1.93,6.08-2.03,4.34-.1,6.37,5.4,10.81,5.4,3.57-.29,6.85,1.93,10.23,2.51,1.54.19,3.18-.29,4.73,0,1.93.39,3.67,2.03,5.79,2.22,5.31.29,9.65-3.96,14.28-5.98,5.4-1.16,10.9-2.8,14.76-7.24,2.03-2.51,5.31-2.8,8.3-3.38,4.34-1.06,7.82-4.44,11.87-6.27,3.28-2.41,7.62-3.67,10.42-6.66,1.35-1.64,2.51-4.15,4.25-4.92,1.64-.77,3.57-.19,5.31.19,4.25.19,6.46,4.44,10.32,2.32,1.16-.77,2.32-1.93,3.57-2.32,1.54-.48,3.38-.39,5.11-.39,5.89-.58,11.19,1.45,16.88,3.09,8.97.58,2.8-10.32,14.86-8.59,1.74.19,3.09.77,3.09,2.32,0,.96-.58,2.32.19,2.99,1.45.96,3.47.77,4.92,1.93,3.38,3.18,6.56,7.33,10.81,9.74.87.68.96,1.25.48,2.03-.19.39-.68,1.06-.39,1.54.77.96,3.18,3.28,4.92,3.76,1.16.29,2.41,0,3.67,0,2.89,0,5.02,2.12,5.02,4.92v.19l.1.77h-.06ZM106.6,8.67c1.06,1.06,1.64,2.89.68,4.05-.26.26-.52.49-.77.68-1.25.68-1.54,2.22-1.06,3.47.87,3.28,3.67,6.85,4.63,9.84.39,1.35.68,2.32,1.54,3.57,2.03,2.61,6.17,5.98,9.17,8.1,1.93,1.45,3.57,2.12,5.69,2.99,7.72,2.89,18.43,10.32,25.95,10.9,1.06.1,2.12.1,3.09.58,2.41,1.06.29,3.67,0,5.4-.39,1.25-.19,2.7-.68,4.15-.87,1.93-2.03,3.76-3.47,4.82-.58.48-1.16.77-1.93.96-1.25.39-2.51,1.06-3.86,1.45-2.32.58-4.34-.19-6.85,0-1.06,0-2.41.19-3.38-.19-1.83-.58-1.74-2.8-2.61-4.15-.1-.29-1.16-1.93-1.16-.87,0,1.16.58,3.57-1.35,3.47-1.74-.39-3.09-1.74-4.82-2.41-5.5-2.22-11.67-3.28-16.98-.48-.77.39-1.54.96-2.22,1.54-1.45,1.25-1.74,2.51-3.28,2.89-1.93.48-4.15-.77-6.08-1.35-2.61-.87-5.6-.48-8.3,0-3.18.58-6.37,2.22-7.43,5.5-1.64,5.69-6.17,10.32-10.32,14.28-.96.87-2.03,1.83-3.18,2.51-1.54.96-3.47,1.06-5.02,1.83-2.32,1.35-4.53,2.89-7.14,3.76-2.51,1.54-5.31,2.61-7.91,3.96-3.57,2.51-4.73,6.95-8.1,9.74-2.41,1.54-4.34,3.76-6.66,5.5-.58.39-1.25.87-1.64,1.45-1.06,1.35-.58,3.28-1.93,4.63-1.64,1.54-3.47,2.89-5.5,3.76-.87.29-1.45.58-1.93.19-.96-.77,2.51-4.73,3.67-8.39.39-1.16.48-2.22.29-3.18-.29-1.83-1.74-3.18-1.16-4.44.68-1.45,2.61-2.12,3.96-2.89,3.18-2.22,6.95-4.82,10.32-6.75,2.7-1.64,6.17-1.93,8.68-3.96.87-.58,1.93-.58,2.8-1.54.39-.39.68-.96.87-1.45,1.06-5.6-8.49-2.32-11.19-1.45-1.54.58-3.18.77-4.82.68-4.05-.39-9.65,1.06-14.38.58-1.74-.1-3.38-1.16-3.86-2.89-.48-1.93-1.25-4.05.29-5.31.58-.39.87-.58,1.35-.96,2.61-2.22,4.15-5.79,6.08-8.39.68-.77,2.12-1.25,2.99-2.03,1.54-1.06,2.32-3.28,2.61-5.11.19-1.25-.39-2.8-.87-4.05-.48-1.35-.39-2.8-.48-4.25,0-4.25-.68-6.27,3.96-8.01,2.7-1.16,4.15-3.96,6.95-4.05,1.25,0,2.51-.39,2.89-1.74.96-3.28-1.06-9.07-1.45-13.03-.19-.87-.68-1.25-1.45-1.64-3.18-.87-4.15-4.25-7.14-5.6-2.12-.77-4.63-2.41-3.47-4.92,1.35-3.67,7.33-1.64,9.17-4.15,1.06-1.45.68-3.28,1.25-4.92.77-2.61,4.05-2.7,6.27-2.61,1.93,0,2.61-.58,3.96-.68,3.47-.29,7.04-1.06,9.46-3.86.87-.96,1.93-2.03,3.38-2.22,1.35-.29,2.99.48,4.25.39,1.64-.1,3.09-1.54,4.82-1.35,2.51.29,4.15,3.09,5.79,4.92,1.54,1.93,3.86,3.28,5.79,4.82.77.48,1.54,1.35,2.41.87,2.12-1.83,4.92-3.38,8.01-2.51,1.06.19,2.32.68,3.09,0,.58-.48.87-1.25,1.54-1.54,1.16-.68,3.57,0,5.6.29.87.19,1.74.39,2.41.96h.1l.1-.19-.03.03ZM19.19,138.83c1.83-.19,1.25,3.86-.48,3.09-.48-.19-.87-.58-1.25-.87-.58-.39-1.64-.68-1.93-1.35-.29-1.06.96-1.45,2.12-1.35.48,0,.96.29,1.35.39h.19v.1h0ZM16.87,119.92c.19.19,0,.48-.39.77-.87.87-2.32.96-3.47,1.25-3.86.87-7.91,2.61-11.48.19-2.61-2.99,5.11-6.08,7.53-6.46,3.09-.96,6.37-1.83,6.17,2.61,0,.39,0,.68.19.96.29.58.96.48,1.45.68h0ZM92.51,89.72c.96,0,2.51.19,2.89,1.06.29.48.19,1.06-.48,1.45-.48.29-1.06.39-1.64.58-1.16.29-1.93,1.25-2.99,1.64s-2.8-.29-3.28-1.25c-.19-.77-.87-2.32-.29-2.89.39-.39,1.25-.29,1.93-.39.19,0,.48-.1.68-.19.96-.39,2.03-.1,3.09.1h.19l-.1-.1h0ZM91.84,101.78c1.35.77-1.35.29-1.83.19-.58-.19-1.16-.29-1.25-.68-.29-1.25,1.35-2.99,2.51-1.64.39.68-.39,1.54.39,2.12h.19-.01Z"/>
    <g id="points">
      <polygon id="_x30_" class="cls-2" points="44.75 354.37 44.75 354.37 44.75 354.37 44.75 354.37"/>
      <polygon id="_x31_" class="cls-2" points="483.37 209.45 483.37 209.45 483.37 209.45 483.37 209.45"/>
      <polygon id="_x32_" class="cls-2" points="834.19 21.02 834.19 21.02 834.19 21.02 834.19 21.02"/>
    </g>
    <g id="label_points">
      <polygon id="TR-2" class="cls-2" points="406.19 168.25 406.19 168.25 406.19 168.25 406.19 168.25"/>
    </g>
    <g>
      <g>
        <rect class="cls-1" x="324.46" y="104.29" width="1.25" height="29.23" rx=".29" ry=".29"/>
        <circle class="cls-15" cx="325.14" cy="101.78" r="10.03"/>
      </g>
      <circle class="cls-16" cx="320.41" cy="98.5" r="2.51"/>
    </g>
    <g>
      <rect class="cls-1" x="70.13" y="193.34" width="1.25" height="28.95" rx=".29" ry=".29"/>
      <g>
        <polygon class="cls-14" points="97.24 211.09 87.88 211.09 91.07 208.49 87.88 208.49 87.88 197.2 97.24 197.2 92.71 204.05 97.24 211.09"/>
        <rect class="cls-17" x="71.38" y="194.31" width="19.59" height="14.18"/>
        <polygon class="cls-10" points="87.88 211.09 87.88 209.84 87.88 208.49 91.07 208.49 87.88 211.09"/>
      </g>
    </g>
    <g class="cls-5">
      <g class="cls-5">
        <text class="cls-6" transform="translate(277.25 84.98)"><tspan x="0" y="0">AN</tspan></text>
        <text class="cls-6" transform="translate(313.19 84.98)"><tspan x="0" y="0">K</tspan></text>
        <text class="cls-6" transform="translate(330.66 84.98)"><tspan x="0" y="0">A</tspan></text>
        <text class="cls-7" transform="translate(347.2 84.98)"><tspan x="0" y="0">R</tspan></text>
        <text class="cls-6" transform="translate(363.57 84.98)"><tspan x="0" y="0">A</tspan></text>
      </g>
    </g>
    <g class="cls-5">
      <g class="cls-5">
        <text class="cls-4" transform="translate(55.56 189.83)"><tspan x="0" y="0">İZMİR</tspan></text>
      </g>
    </g>
    <line class="cls-3" x1="72.17" y1="221.68" x2="324.48" y2="133.66"/>
    <path class="cls-11" d="M70.13,222.58h3.57l3.67,1.16s4.63-.29,4.82-.29,4.63-2.22,4.63-2.22c0,0,1.83-1.35,1.93-1.74s1.54,0,1.54,0l1.83.48h5.69c.19,0,2.12-.19,2.12-.19l4.53-1.74,2.32.39,3.57,1.93h2.7l20.07-5.69,4.25,2.22,6.66-2.89,1.74-.29,1.25-1.74h3.38s2.12-1.06,2.32-1.25,1.54-.58,1.54-.58l1.83-.29,2.7-.96,2.32,1.25s1.64-1.25,2.03-1.54,1.74,0,1.74,0h5.02c.19,0,6.75.68,7.04.68h4.73l2.7-1.64,10.81-9.46s1.74,0,2.03.19,2.7,2.12,2.7,2.12l3.28,1.35,16.5-.48,2.12,1.25s2.03-.77,2.22-.87,1.93,1.54,1.93,1.54l1.83-.77,11.19-8.2,2.51-1.06v-1.45l23.16-17.85,4.44-8.3.68-2.7s2.7-1.35,2.99-1.74,1.35-2.89,1.35-2.89l1.74-2.51,5.69-.96,4.05-.77,4.82.39h5.98c.58,0,3.28-.39,3.28-.39l.77-2.7s2.03-2.7,2.8-3.57,1.74-2.22,1.74-2.22l4.05-1.25s4.05-1.74,4.63-2.03,2.7-1.83,3.28-2.12,2.99-2.61,3.28-2.99,2.51-2.12,2.51-2.12l2.61-2.12"/>
    <text class="cls-9" transform="translate(198.32 222.29)"><tspan x="0" y="0">590</tspan><tspan class="cls-13" x="40.28" y="0">k</tspan><tspan class="cls-18" x="50.98" y="0">m</tspan></text>
    <text class="cls-8" transform="translate(176.42 182.07) rotate(-19.77)"><tspan x="0" y="0">521</tspan><tspan class="cls-13" x="40.28" y="0">k</tspan><tspan class="cls-18" x="50.98" y="0">m</tspan></text>
  </g>
</svg>